<svg width="24" height="24" viewBox="0 0 24 24" fill="none" xmlns="http://www.w3.org/2000/svg">
<path d="M20.05 11H3.95C3.42533 11 3 11.4253 3 11.95V12.05C3 12.5747 3.42533 13 3.95 13H20.05C20.5747 13 21 12.5747 21 12.05V11.95C21 11.4253 20.5747 11 20.05 11Z" fill="url(#paint0_linear_43_84)"/>
<path d="M20.05 16H3.95C3.42533 16 3 16.4253 3 16.95V17.05C3 17.5747 3.42533 18 3.95 18H20.05C20.5747 18 21 17.5747 21 17.05V16.95C21 16.4253 20.5747 16 20.05 16Z" fill="url(#paint1_linear_43_84)"/>
<path d="M20.05 6H3.95C3.42533 6 3 6.42533 3 6.95V7.05C3 7.57467 3.42533 8 3.95 8H20.05C20.5747 8 21 7.57467 21 7.05V6.95C21 6.42533 20.5747 6 20.05 6Z" fill="url(#paint2_linear_43_84)"/>
<defs>
<linearGradient id="paint0_linear_43_84" x1="22.188" y1="11.2264" x2="4.05488" y2="16.4194" gradientUnits="userSpaceOnUse">
<stop stop-color="white"/>
<stop offset="0.0001" stop-color="white"/>
<stop offset="1" stop-color="white"/>
</linearGradient>
<linearGradient id="paint1_linear_43_84" x1="22.188" y1="16.2264" x2="4.05488" y2="21.4194" gradientUnits="userSpaceOnUse">
<stop stop-color="white"/>
<stop offset="0.0001" stop-color="white"/>
<stop offset="1" stop-color="white"/>
</linearGradient>
<linearGradient id="paint2_linear_43_84" x1="22.188" y1="6.22642" x2="4.05488" y2="11.4194" gradientUnits="userSpaceOnUse">
<stop stop-color="white"/>
<stop offset="0.0001" stop-color="white"/>
<stop offset="1" stop-color="white"/>
</linearGradient>
</defs>
</svg>
