<svg width="79" height="79" viewBox="0 0 79 79" fill="none" xmlns="http://www.w3.org/2000/svg">
<g filter="url(#filter0_d_0_1)">
<rect x="8" width="63" height="63" rx="20.0919" fill="white"/>
</g>
<path d="M51.7653 21.238C51.074 20.5508 50.2533 20.0056 49.3499 19.6337C48.4465 19.2617 47.4783 19.0703 46.5004 19.0703C45.5226 19.0703 44.5543 19.2617 43.651 19.6337C42.7476 20.0056 41.9269 20.5508 41.2356 21.238L39.8009 22.6635L38.3663 21.238C36.97 19.8505 35.0761 19.071 33.1014 19.071C31.1267 19.071 29.2329 19.8505 27.8365 21.238C26.4402 22.6254 25.6558 24.5072 25.6558 26.4694C25.6558 28.4316 26.4402 30.3134 27.8365 31.7008L29.2712 33.1264L39.8009 43.5892L50.3307 33.1264L51.7653 31.7008C52.4569 31.0139 53.0055 30.1984 53.3799 29.3008C53.7542 28.4031 53.9468 27.441 53.9468 26.4694C53.9468 25.4978 53.7542 24.5357 53.3799 23.638C53.0055 22.7404 52.4569 21.9248 51.7653 21.238V21.238Z" fill="url(#paint0_linear_0_1)"/>
<g filter="url(#filter1_b_0_1)">
<path d="M36.2648 36.9881C35.996 36.9878 35.7321 36.9169 35.4994 36.7824C35.2668 36.6479 35.0736 36.4546 34.9392 36.2219L32.3264 31.5251L30.6561 34.0306C30.5123 34.2379 30.3196 34.4065 30.095 34.5214C29.8705 34.6364 29.621 34.6941 29.3688 34.6895H22.4729C22.0664 34.6895 21.6767 34.5281 21.3893 34.2407C21.1019 33.9533 20.9404 33.5635 20.9404 33.1571C20.9404 32.7507 21.1019 32.3609 21.3893 32.0735C21.6767 31.7862 22.0664 31.6247 22.4729 31.6247H28.549L31.1618 27.7094C31.3077 27.4913 31.5073 27.3143 31.7413 27.1954C31.9753 27.0765 32.236 27.0197 32.4982 27.0305C32.7605 27.0413 33.0156 27.1192 33.2391 27.2569C33.4626 27.3946 33.647 27.5873 33.7746 27.8167L36.2648 32.3909L40.2721 25.4951C40.409 25.2578 40.607 25.0616 40.8456 24.9268C41.0841 24.7921 41.3544 24.7237 41.6283 24.7289C41.8957 24.7305 42.1581 24.8021 42.3893 24.9365C42.6205 25.0709 42.8124 25.2635 42.9462 25.4951L46.6163 31.6247L48.1488 30.4141C48.4204 30.2033 48.755 30.0899 49.0989 30.0923H56.1864C56.5928 30.0923 56.9826 30.2538 57.27 30.5411C57.5574 30.8285 57.7188 31.2183 57.7188 31.6247C57.7188 32.0311 57.5574 32.4209 57.27 32.7083C56.9826 32.9957 56.5928 33.1571 56.1864 33.1571H49.6352L47.145 35.1262C46.9734 35.2674 46.7732 35.3695 46.5583 35.4256C46.3433 35.4817 46.1187 35.4903 45.9 35.451C45.6813 35.4116 45.4739 35.3252 45.2919 35.1977C45.11 35.0701 44.958 34.9046 44.8464 34.7125L41.6283 29.2801L37.5903 36.2219C37.4559 36.4546 37.2627 36.6479 37.0301 36.7824C36.7974 36.9169 36.5335 36.9878 36.2648 36.9881Z" fill="white" fill-opacity="0.2"/>
</g>
<defs>
<filter id="filter0_d_0_1" x="0" y="0" width="79" height="79" filterUnits="userSpaceOnUse" color-interpolation-filters="sRGB">
<feFlood flood-opacity="0" result="BackgroundImageFix"/>
<feColorMatrix in="SourceAlpha" type="matrix" values="0 0 0 0 0 0 0 0 0 0 0 0 0 0 0 0 0 0 127 0" result="hardAlpha"/>
<feOffset dy="8"/>
<feGaussianBlur stdDeviation="4"/>
<feComposite in2="hardAlpha" operator="out"/>
<feColorMatrix type="matrix" values="0 0 0 0 0 0 0 0 0 0 0 0 0 0 0 0 0 0 0.1 0"/>
<feBlend mode="normal" in2="BackgroundImageFix" result="effect1_dropShadow_0_1"/>
<feBlend mode="normal" in="SourceGraphic" in2="effect1_dropShadow_0_1" result="shape"/>
</filter>
<filter id="filter1_b_0_1" x="12.4269" y="16.2151" width="53.8053" height="29.2864" filterUnits="userSpaceOnUse" color-interpolation-filters="sRGB">
<feFlood flood-opacity="0" result="BackgroundImageFix"/>
<feGaussianBlur in="BackgroundImage" stdDeviation="4.25676"/>
<feComposite in2="SourceAlpha" operator="in" result="effect1_backgroundBlur_0_1"/>
<feBlend mode="normal" in="SourceGraphic" in2="effect1_backgroundBlur_0_1" result="shape"/>
</filter>
<linearGradient id="paint0_linear_0_1" x1="25.6558" y1="30.5125" x2="53.2686" y2="30.6546" gradientUnits="userSpaceOnUse">
<stop stop-color="#FF7070"/>
<stop offset="1" stop-color="#FF7070" stop-opacity="0.65"/>
</linearGradient>
</defs>
</svg>
