<svg width="21" height="22" viewBox="0 0 21 22" fill="none" xmlns="http://www.w3.org/2000/svg">
<path d="M15.4499 15.1473L11.7373 18.8268C11.5749 18.9879 11.3821 19.1157 11.1699 19.2029C10.9576 19.2901 10.7302 19.3349 10.5004 19.3349C10.2707 19.3349 10.0432 19.2901 9.83101 19.2029C9.61879 19.1157 9.42599 18.9879 9.26363 18.8268L5.55013 15.1473C4.5712 14.177 3.90455 12.9409 3.63448 11.5951C3.36441 10.2494 3.50306 8.85447 4.03288 7.58681C4.56271 6.31915 5.45991 5.23567 6.61105 4.47337C7.76219 3.71107 9.11555 3.3042 10.5 3.3042C11.8845 3.3042 13.2378 3.71107 14.389 4.47337C15.5401 5.23567 16.4373 6.31915 16.9671 7.58681C17.497 8.85447 17.6356 10.2494 17.3655 11.5951C17.0955 12.9409 16.4288 14.177 15.4499 15.1473V15.1473Z" stroke="white" stroke-width="1.8" stroke-linecap="round" stroke-linejoin="round"/>
<path d="M12.3562 12.0809C12.8484 11.593 13.125 10.9312 13.125 10.2412C13.125 9.55126 12.8484 8.88953 12.3562 8.40164C11.8639 7.91374 11.1962 7.63965 10.5 7.63965C9.80381 7.63965 9.13613 7.91374 8.64384 8.40164C8.15156 8.88953 7.875 9.55126 7.875 10.2412C7.875 10.9312 8.15156 11.593 8.64384 12.0809C9.13613 12.5688 9.80381 12.8428 10.5 12.8428C11.1962 12.8428 11.8639 12.5688 12.3562 12.0809Z" stroke="white" stroke-width="1.8" stroke-linecap="round" stroke-linejoin="round"/>
</svg>
