<svg width="193" height="51" viewBox="0 0 193 51" fill="none" xmlns="http://www.w3.org/2000/svg">
<path d="M49.6018 27.2877C51.7353 27.2877 52.9413 25.6515 52.9413 23.6803C52.9413 21.9539 51.859 20.1502 49.6173 20.1502C47.3755 20.1502 46.2624 21.8895 46.2624 23.7705C46.2624 25.6 47.4683 27.2877 49.5864 27.2877H49.6018ZM49.54 28.2025C46.7726 28.2025 44.8555 26.4245 44.8555 23.7963C44.8555 21.0392 46.8962 19.2354 49.6791 19.2354C52.5393 19.2354 54.3791 21.052 54.3791 23.6288C54.3791 26.6049 52.1992 28.2025 49.5554 28.2025H49.54Z" fill="#A04276"/>
<path d="M55.9557 26.6952C56.5586 27.0173 57.4244 27.2621 58.352 27.2621C59.728 27.2621 60.532 26.6694 60.532 25.7804C60.532 24.9816 59.9754 24.505 58.5685 24.0669C56.8679 23.5516 55.8165 22.8043 55.8165 21.5932C55.8165 20.2405 57.1616 19.2355 59.1869 19.2355C60.2382 19.2355 61.0267 19.4417 61.4763 19.6607L61.104 20.5754C60.7793 20.4079 60.0836 20.1632 59.1405 20.1632C57.7182 20.1632 57.1771 20.8718 57.1771 21.4644C57.1771 22.2761 57.8109 22.6755 59.2488 23.1393C61.0112 23.719 61.8925 24.4148 61.8925 25.6903C61.8925 27.0302 60.7188 28.2026 58.2606 28.2026C57.2544 28.2026 56.1567 27.9449 55.6001 27.6357L55.9557 26.6952Z" fill="#A04276"/>
<path d="M65.7272 20.3307H62.5579V19.3773H70.2726V20.3307H67.0878V28.0609H65.7272V20.3307Z" fill="#A04276"/>
<path d="M76.8122 23.9895H72.777V27.1202H77.2915V28.0607H71.4165V19.3771H77.0596V20.3176H72.777V23.0619H76.8122V23.9895Z" fill="#A04276"/>
<path d="M83.1658 27.2877C85.2993 27.2877 86.5052 25.6515 86.5052 23.6803C86.5052 21.9539 85.423 20.1502 83.1812 20.1502C80.9395 20.1502 79.8263 21.8895 79.8263 23.7705C79.8263 25.6 81.0322 27.2877 83.1503 27.2877H83.1658ZM83.1039 28.2025C80.3365 28.2025 78.4194 26.4245 78.4194 23.7963C78.4194 21.0392 80.4602 19.2354 83.2431 19.2354C86.1033 19.2354 87.943 21.052 87.943 23.6288C87.943 26.6049 85.7631 28.2025 83.1194 28.2025H83.1039Z" fill="#A04276"/>
<path d="M91.0357 23.6674C91.3294 23.7318 91.7159 23.7575 92.1488 23.7575C93.7876 23.7575 94.7616 23.0876 94.7616 21.9152C94.7616 20.7557 93.7876 20.2017 92.3034 20.2017C91.7159 20.2017 91.2676 20.2532 91.0357 20.2918V23.6674ZM89.6919 19.4931C90.3399 19.39 91.1903 19.3127 92.2725 19.3127C93.6021 19.3127 94.5761 19.5704 95.1945 20.0342C95.7665 20.4464 96.1221 21.0777 96.1221 21.8508C96.1221 22.6367 95.8438 23.2551 95.3027 23.706C94.5915 24.3373 93.432 24.6594 92.1179 24.6594C91.7159 24.6594 91.3449 24.6465 91.0357 24.5821V28.0607H89.6919V19.4931Z" fill="#A04276"/>
<path d="M101.613 24.4537L100.577 21.9542C100.361 21.3874 100.206 20.872 100.051 20.3695H100.005C99.8671 20.872 99.6957 21.4131 99.4948 21.9414L98.4744 24.4537H101.613ZM98.1961 25.3298L97.1138 28.0611H95.7224L99.2628 19.3775H100.887L104.442 28.0611H103.004L101.891 25.3298H98.1961Z" fill="#A04276"/>
<path d="M106.734 20.3307H103.563V19.3773H111.279V20.3307H108.094V28.0609H106.734V20.3307Z" fill="#A04276"/>
<path d="M113.783 19.377V23.0102H118.823V19.377H120.184V28.0606H118.823V23.9894H113.783V28.0606H112.421V19.377H113.783Z" fill="#A04276"/>
<path d="M122.502 19.3779H123.864V28.0615H122.502V19.3779Z" fill="#A04276"/>
<path d="M131.594 23.9895H127.557V27.1202H132.072V28.0607H126.198V19.3771H131.84V20.3176H127.557V23.0619H131.594V23.9895Z" fill="#A04276"/>
<path d="M135.164 23.6674C135.459 23.7318 135.843 23.7575 136.276 23.7575C137.916 23.7575 138.891 23.0876 138.891 21.9152C138.891 20.7557 137.916 20.2017 136.432 20.2017C135.843 20.2017 135.396 20.2532 135.164 20.2918V23.6674ZM133.819 19.4931C134.468 19.39 135.319 19.3127 136.401 19.3127C137.731 19.3127 138.705 19.5704 139.324 20.0342C139.895 20.4464 140.249 21.0777 140.249 21.8508C140.249 22.6367 139.972 23.2551 139.432 23.706C138.72 24.3373 137.559 24.6594 136.246 24.6594C135.843 24.6594 135.473 24.6465 135.164 24.5821V28.0607H133.819V19.4931Z" fill="#A04276"/>
<path d="M143.389 23.4485H144.764C146.205 23.4485 147.115 22.7915 147.115 21.7994C147.115 20.6786 146.141 20.189 144.719 20.189C144.07 20.189 143.623 20.2405 143.389 20.2921V23.4485ZM142.044 19.5062C142.723 19.3902 143.714 19.3129 144.626 19.3129C146.064 19.3129 147.007 19.5448 147.657 20.0344C148.167 20.408 148.476 21.0007 148.476 21.6835C148.476 22.8172 147.596 23.5774 146.512 23.8866V23.9252C147.301 24.1571 147.78 24.7756 148.043 25.6774C148.383 26.8885 148.629 27.7259 148.832 28.0609H147.44C147.271 27.8161 147.038 27.0689 146.76 25.9866C146.451 24.7884 145.88 24.3375 144.656 24.2989H143.389V28.0609H142.044V19.5062Z" fill="#A04276"/>
<path d="M155.539 24.4537L154.502 21.9542C154.286 21.3874 154.132 20.872 153.978 20.3695H153.931C153.793 20.872 153.622 21.4131 153.42 21.9414L152.401 24.4537H155.539ZM152.122 25.3298L151.04 28.0611H149.649L153.189 19.3775H154.812L158.367 28.0611H156.931L155.817 25.3298H152.122Z" fill="#A04276"/>
<path d="M159.899 19.377H161.244V23.5642H161.29C161.569 23.2293 161.847 22.92 162.11 22.6366L165.295 19.377H166.963L163.192 23.0618L167.258 28.0606H165.666L162.248 23.7961L161.244 24.7495V28.0606H159.899V19.377Z" fill="#A04276"/>
<path d="M170.258 20.3307H167.087V19.3773H174.802V20.3307H171.618V28.0609H170.258V20.3307Z" fill="#A04276"/>
<path d="M175.948 19.3779H177.308V28.0615H175.948V19.3779Z" fill="#A04276"/>
<path d="M181.775 19.377H183.137V25.1875C183.137 27.4937 181.775 28.2023 179.982 28.2023C179.473 28.2023 178.869 28.1121 178.544 27.9962L178.731 27.0814C179.009 27.1716 179.41 27.2489 179.874 27.2489C181.081 27.2489 181.775 26.798 181.775 25.0974V19.377Z" fill="#A04276"/>
<path d="M185.378 19.377H186.722V23.5642H186.77C187.047 23.2293 187.326 22.92 187.588 22.6366L190.773 19.377H192.442L188.671 23.0618L192.736 28.0606H191.145L187.727 23.7961L186.722 24.7495V28.0606H185.378V19.377Z" fill="#A04276"/>
<path d="M67.7037 48.1671C68.0748 48.229 68.5193 48.229 69.1634 48.229C70.8705 48.229 72.3779 47.6724 72.3779 46.2088C72.3779 44.8071 70.8705 44.2505 68.9895 44.2505H67.7037V48.1671ZM67.7037 42.0036H68.9406C70.9453 42.0036 71.9824 41.3233 71.9824 40.2926C71.9824 39.2413 71.0187 38.6847 69.3116 38.6847C68.4703 38.6847 68.0001 38.726 67.7037 38.7878V42.0036ZM63.9688 36.7058C64.9582 36.5409 66.9371 36.3966 68.8414 36.3966C71.1411 36.3966 72.5519 36.5821 73.7642 37.1799C74.9263 37.6953 75.7431 38.6435 75.7431 39.9216C75.7431 41.1378 74.8774 42.2716 73.0221 42.8694V42.9106C74.9263 43.3229 76.3371 44.5391 76.3371 46.3325C76.3371 47.6106 75.6439 48.6 74.6042 49.2803C73.3932 50.0842 71.364 50.5377 68.0503 50.5377C66.195 50.5377 64.8088 50.4347 63.9688 50.3316V36.7058Z" fill="#A04276"/>
<path d="M86.9011 44.4775L85.8626 41.5297C85.5895 40.7052 85.2932 39.6539 85.0458 38.8499H84.9724C84.7495 39.6745 84.4776 40.7258 84.2303 41.5297L83.215 44.4775H86.9011ZM82.6714 46.8275L81.508 50.3937H77.6003L82.6958 36.5H87.6187L92.8134 50.3937H88.7563L87.4705 46.8275H82.6714Z" fill="#A04276"/>
<path d="M98.775 42.6632H100.259C102.139 42.6632 103.252 41.8799 103.252 40.6637C103.252 39.4062 102.212 38.7466 100.482 38.7466C99.5674 38.7466 99.0469 38.7878 98.775 38.8497V42.6632ZM95.04 36.7058C96.2524 36.5203 98.0329 36.3966 100.062 36.3966C102.534 36.3966 104.266 36.7058 105.454 37.5098C106.468 38.1694 107.013 39.1383 107.013 40.4163C107.013 42.1685 105.503 43.3847 104.069 43.8176V43.8794C105.231 44.2711 105.874 45.1781 106.294 46.4562C106.814 48.0434 107.31 49.8575 107.631 50.3934H103.771C103.524 50.0018 103.104 48.868 102.635 47.157C102.163 45.4049 101.447 44.9514 99.8882 44.9307H98.775V50.3934H95.04V36.7058Z" fill="#A04276"/>
<path d="M112.779 39.1385H108.278V36.4999H121.09V39.1385H116.54V50.3937H112.779V39.1385Z" fill="#A04276"/>
<path d="M131.852 48.0231C132.172 48.085 132.717 48.085 133.163 48.085C136.602 48.1056 138.853 46.5389 138.853 43.2201C138.853 40.2311 136.823 38.8087 133.559 38.8087C132.742 38.8087 132.172 38.8706 131.852 38.9324V48.0231ZM128.091 36.7061C129.477 36.5 131.283 36.3969 133.163 36.3969C136.353 36.3969 138.431 36.8298 140.015 37.8399C141.748 38.9118 142.834 40.6434 142.834 43.117C142.834 45.7762 141.671 47.6108 140.089 48.7446C138.332 49.9608 135.637 50.538 132.371 50.538C130.416 50.538 129.007 50.4349 128.091 50.3319V36.7061Z" fill="#A04276"/>
<path d="M145.334 36.5002H149.093V50.3939H145.334V36.5002Z" fill="#A04276"/>
<path d="M156.093 42.6632H157.577C159.457 42.6632 160.571 41.8799 160.571 40.6637C160.571 39.4062 159.531 38.7466 157.8 38.7466C156.885 38.7466 156.365 38.7878 156.093 38.8497V42.6632ZM152.359 36.7058C153.57 36.5203 155.351 36.3966 157.379 36.3966C159.854 36.3966 161.585 36.7058 162.772 37.5098C163.787 38.1694 164.332 39.1383 164.332 40.4163C164.332 42.1685 162.822 43.3847 161.387 43.8176V43.8794C162.55 44.2711 163.193 45.1781 163.613 46.4562C164.132 48.0434 164.628 49.8575 164.949 50.3934H161.09C160.843 50.0018 160.422 48.868 159.953 47.157C159.483 45.4049 158.765 44.9514 157.206 44.9307H156.093V50.3934H152.359V36.7058Z" fill="#A04276"/>
<path d="M167.027 36.5001H170.762V42.643H170.812C171.183 42.1071 171.578 41.6123 171.974 41.1176L175.733 36.5001H180.384L174.868 42.4163L180.656 50.3938H176.278L172.172 44.3952L170.762 45.8588V50.3938H167.027V36.5001Z" fill="#A04276"/>
<path d="M182.339 47.1775C183.328 47.6104 184.91 48.0433 186.518 48.0433C188.251 48.0433 189.166 47.4455 189.166 46.5179C189.166 45.6727 188.375 45.1574 186.37 44.5802C183.6 43.7556 181.77 42.4776 181.77 40.4368C181.77 38.0662 184.169 36.2728 188.077 36.2728C189.983 36.2728 191.342 36.582 192.333 36.9737L191.491 39.4886C190.847 39.2206 189.636 38.8289 188.028 38.8289C186.394 38.8289 185.603 39.4679 185.603 40.1688C185.603 41.0552 186.518 41.4469 188.695 42.1477C191.639 43.0548 193 44.3328 193 46.3117C193 48.6411 190.873 50.62 186.297 50.62C184.392 50.62 182.513 50.1872 181.571 49.7543L182.339 47.1775Z" fill="#A04276"/>
<path d="M8.0625 23.1906C8.0625 25.4182 6.25879 27.2219 4.0312 27.2219C1.8049 27.2219 -9.72748e-05 25.4182 -9.72748e-05 23.1906C-9.72748e-05 20.963 1.8049 19.1593 4.0312 19.1593C6.25879 19.1593 8.0625 20.963 8.0625 23.1906Z" fill="#FDB812"/>
<path d="M4.03149 31.565C8.65673 31.565 12.4059 27.8158 12.4059 23.1906C12.4059 18.5654 8.65673 14.8162 4.03149 14.8162V0C16.8391 0 27.2221 10.3829 27.2221 23.1906C27.2221 35.9982 16.8391 46.3812 4.03149 46.3812V31.565Z" fill="#A04276"/>
</svg>
