<svg width="260" height="70" viewBox="0 0 260 70" fill="none" xmlns="http://www.w3.org/2000/svg">
<path d="M66.7589 37.6129C69.6304 37.6129 71.2535 35.4108 71.2535 32.7577C71.2535 30.4341 69.7969 28.0065 66.7797 28.0065C63.7626 28.0065 62.2644 30.3474 62.2644 32.8791C62.2644 35.3414 63.8874 37.6129 66.7381 37.6129H66.7589ZM66.6757 38.8441C62.951 38.8441 60.3708 36.4512 60.3708 32.9138C60.3708 29.203 63.1175 26.7754 66.863 26.7754C70.7125 26.7754 73.1886 29.2203 73.1886 32.6884C73.1886 36.6939 70.2547 38.8441 66.6965 38.8441H66.6757Z" fill="white"/>
<path d="M75.3104 36.8158C76.1219 37.2493 77.2871 37.5787 78.5356 37.5787C80.3875 37.5787 81.4696 36.7811 81.4696 35.5846C81.4696 34.5095 80.7205 33.868 78.8269 33.2784C76.538 32.5848 75.1231 31.5791 75.1231 29.9491C75.1231 28.1284 76.9334 26.7759 79.6593 26.7759C81.0742 26.7759 82.1354 27.0533 82.7406 27.3481L82.2395 28.5792C81.8025 28.3538 80.8661 28.0244 79.5968 28.0244C77.6825 28.0244 76.9542 28.9781 76.9542 29.7757C76.9542 30.8681 77.8073 31.4057 79.7425 32.0299C82.1146 32.8102 83.3007 33.7466 83.3007 35.4632C83.3007 37.2666 81.721 38.8446 78.4125 38.8446C77.0582 38.8446 75.5809 38.4978 74.8318 38.0816L75.3104 36.8158Z" fill="white"/>
<path d="M88.4619 28.2495H84.1963V26.9663H94.5795V28.2495H90.293V38.6535H88.4619V28.2495Z" fill="white"/>
<path d="M103.381 33.1741H97.9503V37.3877H104.026V38.6535H96.1191V26.9663H103.714V28.2321H97.9503V31.9256H103.381V33.1741Z" fill="white"/>
<path d="M111.933 37.6129C114.804 37.6129 116.427 35.4108 116.427 32.7577C116.427 30.4341 114.97 28.0065 111.953 28.0065C108.936 28.0065 107.438 30.3474 107.438 32.8791C107.438 35.3414 109.061 37.6129 111.912 37.6129H111.933ZM111.849 38.8441C108.125 38.8441 105.544 36.4512 105.544 32.9138C105.544 29.203 108.291 26.7754 112.037 26.7754C115.886 26.7754 118.362 29.2203 118.362 32.6884C118.362 36.6939 115.428 38.8441 111.87 38.8441H111.849Z" fill="white"/>
<path d="M122.524 32.7403C122.92 32.827 123.44 32.8617 124.023 32.8617C126.228 32.8617 127.539 31.96 127.539 30.3821C127.539 28.8215 126.228 28.0759 124.231 28.0759C123.44 28.0759 122.837 28.1452 122.524 28.1972V32.7403ZM120.716 27.1222C121.588 26.9834 122.732 26.8794 124.189 26.8794C125.979 26.8794 127.289 27.2262 128.122 27.8504C128.892 28.4053 129.37 29.255 129.37 30.2954C129.37 31.3531 128.996 32.1854 128.267 32.7923C127.31 33.642 125.75 34.0755 123.981 34.0755C123.44 34.0755 122.941 34.0582 122.524 33.9715V38.6533H120.716V27.1222Z" fill="white"/>
<path d="M136.76 33.7988L135.366 30.4348C135.075 29.6718 134.867 28.9782 134.659 28.302H134.596C134.411 28.9782 134.18 29.7065 133.909 30.4175L132.536 33.7988H136.76ZM132.162 34.9779L130.705 38.654H128.832L133.597 26.9668H135.784L140.568 38.654H138.633L137.135 34.9779H132.162Z" fill="white"/>
<path d="M143.652 28.2495H139.385V26.9663H149.77V28.2495H145.483V38.6535H143.652V28.2495Z" fill="white"/>
<path d="M153.14 26.9663V31.8562H159.923V26.9663H161.754V38.6535H159.923V33.174H153.14V38.6535H151.307V26.9663H153.14Z" fill="white"/>
<path d="M164.875 26.9673H166.708V38.6545H164.875V26.9673Z" fill="white"/>
<path d="M177.111 33.1741H171.679V37.3877H177.755V38.6535H169.849V26.9663H177.443V28.2321H171.679V31.9256H177.111V33.1741Z" fill="white"/>
<path d="M181.917 32.7403C182.314 32.827 182.831 32.8617 183.413 32.8617C185.621 32.8617 186.933 31.96 186.933 30.3821C186.933 28.8215 185.621 28.0759 183.623 28.0759C182.831 28.0759 182.229 28.1452 181.917 28.1972V32.7403ZM180.106 27.1222C180.98 26.9834 182.125 26.8794 183.581 26.8794C185.371 26.8794 186.682 27.2262 187.516 27.8504C188.284 28.4053 188.761 29.255 188.761 30.2954C188.761 31.3531 188.388 32.1854 187.661 32.7923C186.703 33.642 185.14 34.0755 183.373 34.0755C182.831 34.0755 182.333 34.0582 181.917 33.9715V38.6533H180.106V27.1222Z" fill="white"/>
<path d="M192.987 32.446H194.837C196.776 32.446 198.002 31.5617 198.002 30.2265C198.002 28.7179 196.691 28.059 194.777 28.059C193.903 28.059 193.301 28.1284 192.987 28.1977V32.446ZM191.177 27.14C192.091 26.9839 193.424 26.8799 194.652 26.8799C196.587 26.8799 197.856 27.192 198.73 27.8509C199.417 28.3538 199.833 29.1514 199.833 30.0704C199.833 31.5964 198.649 32.6194 197.19 33.0356V33.0876C198.251 33.3997 198.897 34.2321 199.25 35.4459C199.708 37.0758 200.039 38.2029 200.311 38.6538H198.439C198.212 38.3243 197.898 37.3186 197.523 35.862C197.107 34.2494 196.339 33.6425 194.692 33.5905H192.987V38.6538H191.177V27.14Z" fill="white"/>
<path d="M209.339 33.7988L207.943 30.4348C207.652 29.6718 207.446 28.9782 207.238 28.302H207.175C206.99 28.9782 206.759 29.7065 206.487 30.4175L205.115 33.7988H209.339ZM204.741 34.9779L203.284 38.654H201.411L206.176 26.9668H208.361L213.145 38.654H211.212L209.714 34.9779H204.741Z" fill="white"/>
<path d="M215.207 26.9663H217.017V32.6018H217.08C217.454 32.151 217.829 31.7348 218.183 31.3533L222.469 26.9663H224.715L219.639 31.9256L225.112 38.6535H222.968L218.368 32.9139L217.017 34.1971V38.6535H215.207V26.9663Z" fill="white"/>
<path d="M229.149 28.2495H224.881V26.9663H235.265V28.2495H230.98V38.6535H229.149V28.2495Z" fill="white"/>
<path d="M236.807 26.9673H238.638V38.6545H236.807V26.9673Z" fill="white"/>
<path d="M244.65 26.9663H246.483V34.7867C246.483 37.8905 244.65 38.8442 242.236 38.8442C241.552 38.8442 240.738 38.7228 240.301 38.5668L240.553 37.3356C240.927 37.457 241.467 37.5611 242.091 37.5611C243.716 37.5611 244.65 36.9542 244.65 34.6653V26.9663Z" fill="white"/>
<path d="M249.5 26.9663H251.308V32.6018H251.372C251.745 32.151 252.121 31.7348 252.473 31.3533L256.76 26.9663H259.007L253.932 31.9256L259.402 38.6535H257.261L252.661 32.9139L251.308 34.1971V38.6535H249.5V26.9663Z" fill="white"/>
<path d="M91.1221 65.7144C91.6215 65.7977 92.2197 65.7977 93.0867 65.7977C95.3843 65.7977 97.4131 65.0486 97.4131 63.0788C97.4131 61.1922 95.3843 60.4431 92.8526 60.4431H91.1221V65.7144ZM91.1221 57.419H92.7867C95.4849 57.419 96.8807 56.5034 96.8807 55.1162C96.8807 53.7012 95.5837 52.9522 93.2861 52.9522C92.1538 52.9522 91.5209 53.0076 91.1221 53.0909V57.419ZM86.0952 50.2887C87.4269 50.0668 90.0904 49.8726 92.6532 49.8726C95.7484 49.8726 97.6472 50.1223 99.2789 50.9268C100.843 51.6204 101.942 52.8967 101.942 54.6168C101.942 56.2537 100.777 57.7796 98.2801 58.5842V58.6397C100.843 59.1946 102.742 60.8315 102.742 63.2452C102.742 64.9654 101.809 66.2971 100.409 67.2126C98.7795 68.2946 96.0484 68.905 91.5885 68.905C89.0916 68.905 87.2258 68.7663 86.0952 68.6276V50.2887Z" fill="white"/>
<path d="M116.959 60.7487L115.562 56.7813C115.194 55.6715 114.795 54.2566 114.462 53.1745H114.364C114.064 54.2843 113.698 55.6993 113.365 56.7813L111.998 60.7487H116.959ZM111.267 63.9115L109.701 68.7112H104.442L111.3 50.0117H117.925L124.917 68.7112H119.456L117.726 63.9115H111.267Z" fill="white"/>
<path d="M132.94 58.3068H134.938C137.468 58.3068 138.966 57.2525 138.966 55.6156C138.966 53.9232 137.567 53.0354 135.238 53.0354C134.007 53.0354 133.306 53.0909 132.94 53.1741V58.3068ZM127.914 50.2887C129.545 50.039 131.942 49.8726 134.673 49.8726C138 49.8726 140.331 50.2887 141.93 51.3707C143.294 52.2585 144.028 53.5625 144.028 55.2827C144.028 57.6409 141.995 59.2778 140.065 59.8604V59.9437C141.63 60.4708 142.495 61.6915 143.06 63.4117C143.761 65.548 144.428 67.9894 144.86 68.7108H139.665C139.332 68.1836 138.767 66.6577 138.136 64.355C137.501 61.9967 136.537 61.3863 134.439 61.3586H132.94V68.7108H127.914V50.2887Z" fill="white"/>
<path d="M151.789 53.563H145.73V50.0117H162.975V53.563H156.85V68.7112H151.789V53.563Z" fill="white"/>
<path d="M177.458 65.5207C177.89 65.6039 178.624 65.6039 179.224 65.6039C183.852 65.6317 186.881 63.5231 186.881 59.0563C186.881 55.0334 184.15 53.1191 179.756 53.1191C178.656 53.1191 177.89 53.2023 177.458 53.2856V65.5207ZM172.397 50.2892C174.263 50.0118 176.694 49.873 179.224 49.873C183.517 49.873 186.314 50.4557 188.445 51.8151C190.777 53.2578 192.239 55.5883 192.239 58.9176C192.239 62.4966 190.675 64.9658 188.546 66.4917C186.18 68.1286 182.553 68.9055 178.157 68.9055C175.527 68.9055 173.63 68.7668 172.397 68.628V50.2892Z" fill="white"/>
<path d="M195.604 50.0122H200.664V68.7117H195.604V50.0122Z" fill="white"/>
<path d="M210.084 58.3068H212.082C214.612 58.3068 216.112 57.2525 216.112 55.6156C216.112 53.9232 214.713 53.0354 212.382 53.0354C211.151 53.0354 210.45 53.0909 210.084 53.1741V58.3068ZM205.059 50.2887C206.689 50.039 209.086 49.8726 211.815 49.8726C215.146 49.8726 217.477 50.2887 219.074 51.3707C220.44 52.2585 221.173 53.5625 221.173 55.2827C221.173 57.6409 219.141 59.2778 217.209 59.8604V59.9437C218.775 60.4708 219.641 61.6915 220.206 63.4117C220.905 65.548 221.572 67.9894 222.004 68.7108H216.811C216.478 68.1836 215.911 66.6577 215.28 64.355C214.647 61.9967 213.681 61.3863 211.583 61.3586H210.084V68.7108H205.059V50.2887Z" fill="white"/>
<path d="M224.8 50.0117H229.827V58.2794H229.895C230.394 57.5581 230.926 56.8922 231.459 56.2264L236.518 50.0117H242.778L235.353 57.9743L243.144 68.7112H237.252L231.726 60.6377L229.827 62.6075V68.7112H224.8V50.0117Z" fill="white"/>
<path d="M245.409 64.3827C246.74 64.9653 248.87 65.5479 251.034 65.5479C253.366 65.5479 254.597 64.7433 254.597 63.4949C254.597 62.3574 253.533 61.6638 250.834 60.8869C247.106 59.7772 244.644 58.057 244.644 55.3104C244.644 52.1198 247.873 49.7061 253.132 49.7061C255.697 49.7061 257.526 50.1222 258.859 50.6494L257.727 54.0341C256.86 53.6735 255.23 53.1463 253.066 53.1463C250.867 53.1463 249.803 54.0064 249.803 54.9497C249.803 56.1427 251.034 56.6698 253.964 57.6131C257.926 58.8339 259.758 60.554 259.758 63.2174C259.758 66.3525 256.895 69.0159 250.736 69.0159C248.173 69.0159 245.643 68.4333 244.375 67.8507L245.409 64.3827Z" fill="white"/>
<path d="M10.8513 32.0987C10.8513 35.0968 8.42371 37.5244 5.42562 37.5244C2.42926 37.5244 -8.29697e-05 35.0968 -8.29697e-05 32.0987C-8.29697e-05 29.1006 2.42926 26.673 5.42562 26.673C8.42371 26.673 10.8513 29.1006 10.8513 32.0987Z" fill="#FDB812"/>
<path d="M5.42578 43.3698C11.6509 43.3698 16.6968 38.3239 16.6968 32.0988C16.6968 25.8737 11.6509 20.8278 5.42578 20.8278V0.886719C22.6635 0.886719 36.6379 14.8611 36.6379 32.0988C36.6379 49.3365 22.6635 63.3109 5.42578 63.3109V43.3698Z" fill="white"/>
</svg>
