<svg width="19" height="15" viewBox="0 0 19 15" fill="none" xmlns="http://www.w3.org/2000/svg">
<path d="M1.625 4.44682L8.52875 9.00829C8.81633 9.19845 9.15429 9.29993 9.5 9.29993C9.84571 9.29993 10.1837 9.19845 10.4712 9.00829L17.375 4.44682M3.375 13.986H15.625C16.0891 13.986 16.5342 13.8033 16.8624 13.478C17.1906 13.1528 17.375 12.7116 17.375 12.2516V3.57962C17.375 3.11962 17.1906 2.67847 16.8624 2.35321C16.5342 2.02795 16.0891 1.84521 15.625 1.84521H3.375C2.91087 1.84521 2.46575 2.02795 2.13756 2.35321C1.80937 2.67847 1.625 3.11962 1.625 3.57962V12.2516C1.625 12.7116 1.80937 13.1528 2.13756 13.478C2.46575 13.8033 2.91087 13.986 3.375 13.986Z" stroke="white" stroke-width="1.8" stroke-linecap="round" stroke-linejoin="round"/>
</svg>
